<?xml version="1.0" encoding="UTF-8"?>
<svg id="Layer_1" data-name="Layer 1" xmlns="http://www.w3.org/2000/svg" viewBox="0 0 511.98 432.71">
  <defs>
    <style>
      .cls-1 {
        fill: #0072bc;
      }
    </style>
  </defs>
  <path class="cls-1" d="M127.4,3.42c-39.72,1.64-79.45,2.35-119.19,2.37l2.39-4.49c9.33,13.6,18.87,27.06,28.01,40.79,26.79,39.8,56.04,83.76,80.95,124.47C80.66,114.61,41.94,58.52,5.85,4.53L2.79,0c41.55.28,83.1,1.36,124.61,3.42h0Z"/>
  <path class="cls-1" d="M125.15,246.92c-9.33,15.68-18.8,31.26-28.47,46.72-9.74,15.41-19.24,30.98-29.18,46.25l-29.67,45.93-30.2,45.58-2.39-4.4c20.51-.06,41.03.25,61.54.61,20.51.25,41.03.88,61.55,1.66-20.51.97-41.02,1.79-61.53,2.23-20.51.55-41.02,1.06-61.53,1.18l-5.27.03,2.88-4.44,29.75-45.88,30.28-45.53c10.04-15.21,20.53-30.13,30.77-45.21,10.31-15.03,20.83-29.94,31.48-44.74h0Z"/>
  <polygon class="cls-1" points="380.58 17.39 289.48 17.39 212.35 140.53 257.9 213.26 380.58 17.39"/>
  <g>
    <polygon class="cls-1" points="240.35 185.24 212.35 183.7 212.35 202.68 249.98 200.62 240.35 185.24"/>
    <polygon class="cls-1" points="266.38 199.72 385.44 193.19 274.29 187.1 266.38 199.72"/>
  </g>
  <polygon class="cls-1" points="305.37 137.47 298.51 148.43 401.9 142.76 305.37 137.47"/>
  <polygon class="cls-1" points="339.67 82.7 330.09 98 474.43 90.09 339.67 82.7"/>
  <polygon class="cls-1" points="372.81 29.79 362.92 45.59 511.98 37.42 372.81 29.79"/>
  <polygon class="cls-1" points="382.41 412.06 257.9 213.26 212.35 285.99 291.31 412.06 382.41 412.06"/>
  <polygon class="cls-1" points="212.35 140.53 166.8 213.26 212.35 285.99 257.9 213.26 212.35 140.53"/>
  <polygon class="cls-1" points="189.49 104.04 143.94 176.76 166.8 213.26 143.94 249.76 189.49 322.49 257.9 213.26 189.49 104.04"/>
</svg>