<?xml version="1.0" encoding="UTF-8"?>
<svg id="Layer_1" data-name="Layer 1" xmlns="http://www.w3.org/2000/svg" viewBox="0 0 512 432.71">
  <path d="M127.42,3.42c-39.72,1.64-79.45,2.35-119.19,2.37,0,0,2.39-4.49,2.39-4.49,9.33,13.6,18.87,27.06,28.01,40.79,26.79,39.8,56.04,83.76,80.95,124.47C80.68,114.61,41.96,58.52,5.87,4.53c0,0-3.06-4.53-3.06-4.53,41.55.28,83.1,1.36,124.61,3.42h0Z"/>
  <path d="M125.17,246.92c-9.33,15.68-18.8,31.26-28.47,46.72-9.74,15.41-19.24,30.98-29.18,46.25l-29.67,45.93-30.2,45.58-2.39-4.4c20.51-.06,41.03.25,61.54.61,20.51.25,41.03.88,61.55,1.66-20.51.97-41.02,1.79-61.53,2.23-20.51.55-41.02,1.06-61.53,1.18l-5.27.03,2.88-4.44,29.75-45.88,30.28-45.53c10.04-15.21,20.53-30.13,30.77-45.21,10.31-15.03,20.83-29.94,31.48-44.74Z"/>
  <polygon points="380.6 17.39 289.5 17.39 212.37 140.53 257.92 213.26 380.6 17.39"/>
  <g>
    <polygon points="240.37 185.24 212.37 183.7 212.37 202.68 250 200.62 240.37 185.24"/>
    <polygon points="266.4 199.72 385.46 193.19 274.31 187.1 266.4 199.72"/>
  </g>
  <polygon points="305.39 137.47 298.53 148.43 401.92 142.76 305.39 137.47"/>
  <polygon points="339.69 82.7 330.11 98 474.45 90.09 339.69 82.7"/>
  <polygon points="372.83 29.79 362.94 45.59 512 37.42 372.83 29.79"/>
  <polygon points="382.43 412.06 257.92 213.26 212.37 285.99 291.33 412.06 382.43 412.06"/>
  <polygon points="212.37 140.53 166.82 213.26 212.37 285.99 257.92 213.26 212.37 140.53"/>
  <polygon points="189.51 104.04 143.96 176.76 166.82 213.26 143.96 249.76 189.51 322.49 257.92 213.26 189.51 104.04"/>
</svg>